<svg width="210" height="60" viewBox="0 0 210 60" fill="none" xmlns="http://www.w3.org/2000/svg">
<path d="M45.5229 55.6765C46.63 55.0057 46.9839 53.5646 46.3132 52.4575C45.6424 51.3502 44.2014 50.9965 43.0942 51.6671C39.1575 54.052 34.6295 55.3125 30 55.3125C16.0426 55.3125 4.6875 43.9574 4.6875 30C4.6875 16.0426 16.0426 4.6875 30 4.6875C43.9574 4.6875 55.3125 16.0426 55.3125 30C55.3125 34.9909 53.8283 39.8489 51.0204 44.0489C50.3009 45.125 50.5901 46.5806 51.6661 47.2999C52.7425 48.0195 54.1978 47.7302 54.9171 46.6542C58.2424 41.6805 60 35.9215 60 30C60 21.9867 56.8794 14.4531 51.2133 8.78672C45.5469 3.12059 38.0133 0 30 0C21.9867 0 14.4531 3.12059 8.78672 8.78672C3.12059 14.4531 0 21.9867 0 30C0 38.0133 3.12059 45.5469 8.78672 51.2133C14.4531 56.8794 21.9867 60 30 60C35.4859 60 40.8536 58.5049 45.5229 55.6765Z" fill="#3B71FE"/>
<path fill-rule="evenodd" clip-rule="evenodd" d="M34.0623 42.3051C34.672 42.3051 35.1687 42.5114 35.5752 42.9238C35.9967 43.3515 36.2074 43.8556 36.2074 44.4361C36.2074 45.0318 35.9967 45.5435 35.5752 45.9713C35.1687 46.3837 34.672 46.5899 34.0849 46.5899C31.4731 46.5899 29.2603 45.6581 27.4237 43.7945C25.5872 41.9309 24.6689 39.6854 24.6689 37.058L24.6689 16.4132C24.6689 15.8327 24.8722 15.3286 25.2786 14.9009C25.7001 14.4884 26.2044 14.2822 26.7915 14.2822C27.3635 14.2822 27.8603 14.4884 28.2818 14.9009C28.6882 15.3286 28.8914 15.8327 28.8914 16.4132V23.5163H32.301C32.8881 23.5163 33.3849 23.7225 33.7913 24.1349C34.2128 24.5474 34.4236 25.0515 34.4236 25.6472C34.4236 26.2429 34.2128 26.747 33.7913 27.1595C33.3849 27.5872 32.8881 27.801 32.301 27.801H28.8914L28.8914 37.058C28.8914 38.5092 29.3957 39.7465 30.4043 40.7699C31.4129 41.7934 32.6322 42.3051 34.0623 42.3051Z" fill="#3B71FE" stroke="#3B71FE"/>
<path d="M70.468 7.3H89.008V12.052H82.204V32.5H77.236V12.052H70.468V7.3ZM94.6442 14.5V17.596C95.5082 15.292 97.6682 14.14 100.116 14.14V19.324C98.7123 19.144 97.4162 19.432 96.3002 20.188C95.1842 20.944 94.6442 22.168 94.6442 23.896V32.5H90.0002V14.5H94.6442ZM116.564 16.624V14.5H121.208V32.5H116.564V30.376C115.16 32.14 113.216 33.004 110.696 33.004C108.284 33.004 106.232 32.104 104.504 30.268C102.812 28.432 101.948 26.164 101.948 23.5C101.948 20.836 102.812 18.604 104.504 16.768C106.232 14.932 108.284 13.996 110.696 13.996C113.216 13.996 115.16 14.86 116.564 16.624ZM107.996 27.172C108.932 28.108 110.12 28.576 111.56 28.576C113 28.576 114.188 28.108 115.124 27.172C116.096 26.2 116.564 24.976 116.564 23.5C116.564 22.024 116.096 20.8 115.124 19.864C114.188 18.892 113 18.424 111.56 18.424C110.12 18.424 108.932 18.892 107.996 19.864C107.06 20.8 106.592 22.024 106.592 23.5C106.592 24.976 107.06 26.2 107.996 27.172ZM133.591 27.1L137.983 14.5H143.095L136.255 32.5H130.963L124.123 14.5H129.235L133.591 27.1ZM163.551 25.408H149.979C150.591 27.676 152.283 28.792 155.055 28.792C156.819 28.792 158.187 28.18 159.087 26.992L162.831 29.152C161.067 31.708 158.439 33.004 154.983 33.004C151.995 33.004 149.619 32.104 147.819 30.304C146.019 28.504 145.119 26.236 145.119 23.5C145.119 20.8 146.019 18.532 147.783 16.732C149.547 14.896 151.851 13.996 154.623 13.996C157.251 13.996 159.447 14.896 161.139 16.732C162.867 18.568 163.731 20.8 163.731 23.5C163.731 24.112 163.659 24.724 163.551 25.408ZM149.907 21.808H159.087C158.547 19.36 156.747 18.172 154.623 18.172C152.139 18.172 150.447 19.504 149.907 21.808ZM172.337 32.5H167.693V6.22H172.337V32.5ZM194.803 25.408H181.231C181.843 27.676 183.535 28.792 186.307 28.792C188.071 28.792 189.439 28.18 190.339 26.992L194.083 29.152C192.319 31.708 189.691 33.004 186.235 33.004C183.247 33.004 180.871 32.104 179.071 30.304C177.271 28.504 176.371 26.236 176.371 23.5C176.371 20.8 177.271 18.532 179.035 16.732C180.799 14.896 183.103 13.996 185.875 13.996C188.503 13.996 190.699 14.896 192.391 16.732C194.119 18.568 194.983 20.8 194.983 23.5C194.983 24.112 194.911 24.724 194.803 25.408ZM181.159 21.808H190.339C189.799 19.36 187.999 18.172 185.875 18.172C183.391 18.172 181.699 19.504 181.159 21.808ZM203.589 14.5V17.596C204.453 15.292 206.613 14.14 209.061 14.14V19.324C207.657 19.144 206.361 19.432 205.245 20.188C204.129 20.944 203.589 22.168 203.589 23.896V32.5H198.945V14.5H203.589Z" fill="#3B71FE"/>
<path d="M76.17 46.5H77.4V53.5H76.25V48.51L74.12 52.03H73.98L71.85 48.5V53.5H70.7V46.5H71.94L74.05 50L76.17 46.5ZM85.0957 53.5H83.8557L83.3657 52.09H80.3857L79.8957 53.5H78.6457L81.1857 46.5H82.5657L85.0957 53.5ZM81.8757 47.85L80.7657 51.01H82.9857L81.8757 47.85ZM86.3484 46.5H89.0984C90.0584 46.5 90.8584 46.84 91.4884 47.51C92.1284 48.18 92.4484 49.01 92.4484 50C92.4484 50.98 92.1284 51.81 91.4884 52.49C90.8584 53.16 90.0584 53.5 89.0984 53.5H86.3484V46.5ZM87.4984 52.4H89.0984C89.7584 52.4 90.2984 52.17 90.7084 51.72C91.1284 51.27 91.3384 50.69 91.3384 50C91.3384 49.3 91.1284 48.73 90.7084 48.28C90.2984 47.83 89.7584 47.6 89.0984 47.6H87.4984V52.4ZM95.1469 50.51V52.4H98.2469V53.5H93.9969V46.5H98.1969V47.6H95.1469V49.42H97.9469V50.51H95.1469ZM106.92 49.87C107.53 50.19 107.9 50.77 107.9 51.5C107.9 52.07 107.7 52.55 107.29 52.93C106.88 53.31 106.39 53.5 105.8 53.5H102.8V46.5H105.58C106.15 46.5 106.64 46.69 107.03 47.06C107.43 47.43 107.63 47.89 107.63 48.44C107.63 49.05 107.39 49.52 106.92 49.87ZM105.58 47.58H103.95V49.42H105.58C106.09 49.42 106.48 49.02 106.48 48.5C106.48 47.98 106.09 47.58 105.58 47.58ZM103.95 52.42H105.8C106.33 52.42 106.75 51.99 106.75 51.44C106.75 50.89 106.33 50.46 105.8 50.46H103.95V52.42ZM113.161 46.5H114.471L112.031 50.72V53.5H110.881V50.72L108.441 46.5H109.751L111.461 49.6L113.161 46.5ZM121.053 53.63C119.703 53.63 118.723 52.98 118.353 51.91L119.343 51.33C119.623 52.12 120.203 52.51 121.083 52.51C121.953 52.51 122.383 52.14 122.383 51.59C122.383 51.3 122.263 51.09 122.033 50.94C121.803 50.79 121.383 50.62 120.793 50.44C120.123 50.24 119.793 50.11 119.323 49.8C118.873 49.48 118.643 49.02 118.643 48.39C118.643 47.77 118.863 47.28 119.303 46.92C119.743 46.55 120.273 46.37 120.893 46.37C122.013 46.37 122.883 46.95 123.333 47.91L122.363 48.47C122.073 47.82 121.583 47.49 120.893 47.49C120.223 47.49 119.793 47.83 119.793 48.36C119.793 48.88 120.133 49.12 121.203 49.45C121.473 49.54 121.663 49.6 121.783 49.65C121.913 49.69 122.083 49.76 122.303 49.85C122.533 49.94 122.703 50.04 122.813 50.13C123.183 50.42 123.583 50.9 123.533 51.57C123.533 52.2 123.303 52.71 122.843 53.08C122.393 53.45 121.793 53.63 121.053 53.63ZM129.125 49.37V46.5H130.275V53.5H129.125V50.47H126.125V53.5H124.975V46.5H126.125V49.37H129.125ZM132.175 53.5V46.5H133.325V53.5H132.175ZM139.423 51.25V46.5H140.573V53.5H139.673L136.373 48.75V53.5H135.223V46.5H136.123L139.423 51.25ZM143.621 50.51V52.4H146.721V53.5H142.471V46.5H146.671V47.6H143.621V49.42H146.421V50.51H143.621ZM151.526 53.63C150.476 53.63 149.596 53.28 148.906 52.59C148.216 51.89 147.866 51.03 147.866 50C147.866 48.97 148.216 48.11 148.906 47.42C149.596 46.72 150.476 46.37 151.526 46.37C152.796 46.37 153.936 47.01 154.536 48.04L153.536 48.62C153.166 47.93 152.406 47.49 151.526 47.49C150.776 47.49 150.176 47.73 149.706 48.2C149.246 48.67 149.016 49.27 149.016 50C149.016 50.73 149.246 51.33 149.706 51.8C150.176 52.27 150.776 52.51 151.526 52.51C152.406 52.51 153.176 52.07 153.536 51.38L154.536 51.95C154.246 52.46 153.826 52.87 153.286 53.18C152.756 53.48 152.166 53.63 151.526 53.63ZM161.89 52.58C161.19 53.28 160.33 53.63 159.32 53.63C158.31 53.63 157.45 53.28 156.74 52.58C156.04 51.87 155.69 51.01 155.69 50C155.69 48.99 156.04 48.13 156.74 47.43C157.45 46.72 158.31 46.37 159.32 46.37C160.33 46.37 161.19 46.72 161.89 47.43C162.6 48.13 162.95 48.99 162.95 50C162.95 51.01 162.6 51.87 161.89 52.58ZM157.55 51.8C158.03 52.27 158.62 52.51 159.32 52.51C160.02 52.51 160.61 52.27 161.08 51.8C161.56 51.32 161.8 50.72 161.8 50C161.8 49.28 161.56 48.68 161.08 48.21C160.61 47.73 160.02 47.49 159.32 47.49C158.62 47.49 158.03 47.73 157.55 48.21C157.08 48.68 156.84 49.28 156.84 50C156.84 50.72 157.08 51.32 157.55 51.8ZM169.969 46.5H171.199V53.5H170.049V48.51L167.919 52.03H167.779L165.649 48.5V53.5H164.499V46.5H165.739L167.849 50L169.969 46.5ZM178.565 46.5H179.795V53.5H178.645V48.51L176.515 52.03H176.375L174.245 48.5V53.5H173.095V46.5H174.335L176.445 50L178.565 46.5ZM182.84 50.51V52.4H185.94V53.5H181.69V46.5H185.89V47.6H182.84V49.42H185.64V50.51H182.84ZM192.743 53.5H191.483L190.003 50.95H188.643V53.5H187.493V46.5H190.293C190.923 46.5 191.453 46.72 191.883 47.16C192.323 47.59 192.543 48.12 192.543 48.75C192.543 49.64 191.983 50.45 191.153 50.78L192.743 53.5ZM190.293 47.58H188.643V49.92H190.293C190.903 49.92 191.393 49.4 191.393 48.75C191.393 48.1 190.903 47.58 190.293 47.58ZM197.387 53.63C196.337 53.63 195.457 53.28 194.767 52.59C194.077 51.89 193.727 51.03 193.727 50C193.727 48.97 194.077 48.11 194.767 47.42C195.457 46.72 196.337 46.37 197.387 46.37C198.657 46.37 199.797 47.01 200.397 48.04L199.397 48.62C199.027 47.93 198.267 47.49 197.387 47.49C196.637 47.49 196.037 47.73 195.567 48.2C195.107 48.67 194.877 49.27 194.877 50C194.877 50.73 195.107 51.33 195.567 51.8C196.037 52.27 196.637 52.51 197.387 52.51C198.267 52.51 199.037 52.07 199.397 51.38L200.397 51.95C200.107 52.46 199.687 52.87 199.147 53.18C198.617 53.48 198.027 53.63 197.387 53.63ZM203.002 50.51V52.4H206.102V53.5H201.852V46.5H206.052V47.6H203.002V49.42H205.802V50.51H203.002Z" fill="#3B71FE"/>
</svg>
